 
http://www.imdb.com/title/tt1855325/




Resident Evil: Retribution (2012)

95 min - Action | Horror | Sci-Fi

Ratings: 6.6/10 from 4,381 users
Reviews: 45 user



Plot:Alice fights alongside a resistance movement in the continuing battle against the Umbrella Corporation and the undead.



Director:
Paul W.S. Anderson

Writer:
Paul W.S. Anderson

Stars:
Milla Jovovich, Sienna Guillory and Michelle Rodriguez



Format : AVI
Format/Info : Audio Video Interleave
Format profile : OpenDML
File size : 2.90 GiB
Duration : 1h 25mn
Overall bit rate : 4 856 Kbps
Writing library : VirtualDub build 32842/release

Video
ID : 0
Format : MPEG-4 Visual
Format profile : Advanced Simple@L5
Format settings, BVOP : 2
Format settings, QPel : No
Format settings, GMC : No warppoints
Format settings, Matrix : Default (H.263)
Muxing mode : Packed bitstream
Codec ID : XVID
Codec ID/Hint : XviD
Duration : 1h 25mn
Bit rate : 4 461 Kbps
Width : 1 280 pixels
Height : 544 pixels
Display aspect ratio : 2.35:1
Frame rate : 25.000 fps
Color space : YUV
Chroma subsampling : 4:2:0
Bit depth : 8 bits
Scan type : Progressive
Compression mode : Lossy
Bits/(Pixel*Frame) : 0.256
Stream size : 2.67 GiB (92%)
Writing library : XviD 64

Audio
ID : 1
Format : AC-3
Format/Info : Audio Coding 3
Mode extension : CM (complete main)
Format settings, Endianness : Big
Codec ID : 2000
Duration : 1h 25mn
Bit rate mode : Constant
Bit rate : 384 Kbps
Channel(s) : 2 channels
Channel positions : Front: L R
Sampling rate : 48.0 KHz
Bit depth : 16 bits
Compression mode : Lossy
Stream size : 235 MiB (8%)
Alignment : Aligned on interleaves
Interleave, duration : 40 ms (1.00 video frame)